<svg width="124" height="45" viewBox="0 0 124 45" fill="none" xmlns="http://www.w3.org/2000/svg">
<g clip-path="url(#clip0_8_249)">
<path fill-rule="evenodd" clip-rule="evenodd" d="M5.70328 21.2192C6.27129 21.1461 6.84711 21.1461 7.4151 21.2193C7.66571 21.2516 7.84225 21.4777 7.80943 21.7243C7.77663 21.9709 7.54688 22.1447 7.29629 22.1124C6.80716 22.0494 6.31122 22.0494 5.82209 22.1124C5.57148 22.1447 5.34175 21.9709 5.30895 21.7243C5.27613 21.4776 5.45268 21.2515 5.70328 21.2192ZM3.20744 22.5803C3.36155 22.7774 3.32406 23.0602 3.12374 23.2118C2.9309 23.3578 2.74528 23.5179 2.56833 23.692C2.39137 23.8662 2.22876 24.0489 2.08043 24.2386C1.92633 24.4358 1.63901 24.4727 1.43869 24.321C1.23837 24.1694 1.2009 23.8866 1.35499 23.6894C1.5274 23.4689 1.71615 23.2569 1.92117 23.0551C2.12619 22.8533 2.34159 22.6675 2.56572 22.4979C2.76604 22.3462 3.05335 22.3831 3.20744 22.5803ZM9.91092 22.5803C10.065 22.3832 10.3523 22.3463 10.5526 22.4979C10.7768 22.6676 10.9922 22.8534 11.1972 23.0552C11.4022 23.257 11.5909 23.469 11.7633 23.6895C11.9174 23.8867 11.88 24.1695 11.6796 24.3211C11.4793 24.4728 11.192 24.4359 11.0379 24.2387C10.8896 24.049 10.727 23.8663 10.55 23.6921C10.3731 23.518 10.1875 23.3579 9.99462 23.2119C9.79429 23.0603 9.75681 22.7775 9.91092 22.5803ZM0.568937 26.3893C0.81953 26.4216 0.996078 26.6477 0.963265 26.8943C0.899219 27.3757 0.899215 27.8638 0.963249 28.3452C0.996058 28.5919 0.819505 28.818 0.568911 28.8503C0.318316 28.8826 0.0885734 28.7088 0.0557663 28.4622C-0.0185946 27.9032 -0.0185887 27.3364 0.0557837 26.7774C0.0885961 26.5308 0.318342 26.357 0.568937 26.3893ZM1.43863 30.9186C1.63895 30.7669 1.92626 30.8038 2.08035 31.0009C2.22868 31.1907 2.39129 31.3734 2.56825 31.5476C2.7452 31.7217 2.9308 31.8818 3.12363 32.0278C3.32396 32.1794 3.36145 32.4622 3.20734 32.6594C3.05325 32.8565 2.76594 32.8934 2.56561 32.7417C2.34149 32.5721 2.12609 32.3863 1.92108 32.1845C1.71606 31.9827 1.52732 31.7707 1.35491 31.5502C1.20082 31.353 1.2383 31.0702 1.43863 30.9186ZM11.6796 30.9187C11.8799 31.0703 11.9174 31.3531 11.7633 31.5503C11.5908 31.7708 11.4021 31.9828 11.1971 32.1846C10.9921 32.3864 10.7767 32.5722 10.5525 32.7418C10.3522 32.8935 10.0649 32.8566 9.91082 32.6594C9.75673 32.4623 9.79419 32.1795 9.99452 32.0278C10.1874 31.8819 10.373 31.7218 10.5499 31.5477C10.7269 31.3735 10.8895 31.1908 11.0378 31.001C11.1919 30.8039 11.4792 30.767 11.6796 30.9187ZM5.30881 33.5154C5.34163 33.2687 5.57138 33.095 5.82197 33.1273C6.3111 33.1903 6.80704 33.1903 7.29616 33.1273C7.54678 33.095 7.77651 33.2688 7.80933 33.5154C7.84213 33.762 7.66557 33.9881 7.41498 34.0204C6.84697 34.0936 6.27114 34.0936 5.70316 34.0204C5.45254 33.9881 5.27601 33.762 5.30881 33.5154Z" fill="#14141A"/>
<path fill-rule="evenodd" clip-rule="evenodd" d="M19.1348 22.8163C16.4426 21.2763 13.0092 22.1806 11.4644 24.8316C9.91919 27.4833 10.8458 30.883 13.5387 32.4234C16.231 33.9634 19.6644 33.0591 21.2091 30.4081C22.7544 27.7564 21.8277 24.3567 19.1348 22.8163ZM10.6746 24.3821C12.4726 21.2967 16.4655 20.2487 19.5914 22.0367C22.7164 23.8244 23.7965 27.7729 21.999 30.8576C20.2011 33.943 16.208 34.991 13.0822 33.203C9.95703 31.4153 8.87705 27.4668 10.6746 24.3821Z" fill="#14141A"/>
<path fill-rule="evenodd" clip-rule="evenodd" d="M29.8514 22.037C26.7241 20.2481 22.7324 21.2975 20.9355 24.3809C19.1388 27.4642 20.2174 31.4139 23.3448 33.2027C26.4719 34.9916 30.4636 33.9422 32.2605 30.8588C34.0572 27.7755 32.9786 23.8258 29.8514 22.037Z" fill="#14141A"/>
<path d="M110.011 39.0411V21.2227H112.938L113.146 23.45H113.249C113.577 22.9209 113.966 22.4686 114.415 22.0931C114.881 21.7176 115.408 21.4275 115.995 21.2227C116.6 21.0179 117.256 20.9155 117.964 20.9155C119.19 20.9155 120.252 21.2056 121.15 21.7859C122.048 22.3491 122.748 23.1342 123.249 24.1412C123.75 25.1482 124 26.2917 124 27.5718C124 28.8518 123.75 29.9953 123.249 31.0023C122.748 32.0093 122.04 32.803 121.125 33.3832C120.209 33.9465 119.121 34.2281 117.86 34.2281C116.859 34.2281 115.986 34.0404 115.244 33.6649C114.519 33.2723 113.94 32.8115 113.508 32.2824V39.0411H110.011ZM116.954 31.412C117.662 31.412 118.275 31.2498 118.793 30.9255C119.328 30.6012 119.734 30.1575 120.011 29.5943C120.304 29.014 120.451 28.3483 120.451 27.5974C120.451 26.8293 120.304 26.1637 120.011 25.6005C119.734 25.0202 119.328 24.5679 118.793 24.2436C118.275 23.9193 117.662 23.7572 116.954 23.7572C116.263 23.7572 115.65 23.9193 115.114 24.2436C114.579 24.5679 114.164 25.0202 113.871 25.6005C113.577 26.1637 113.43 26.8293 113.43 27.5974C113.43 28.3483 113.577 29.014 113.871 29.5943C114.164 30.1575 114.579 30.6012 115.114 30.9255C115.65 31.2498 116.263 31.412 116.954 31.412Z" fill="#14141A"/>
<path d="M100.363 34.3053C99.3096 34.3053 98.4116 34.0834 97.6688 33.6397C96.9262 33.1959 96.3563 32.5388 95.9592 31.6684C95.5618 30.7809 95.3633 29.6971 95.3633 28.417V21.2999H98.8347V28.1098C98.8347 29.168 99.0505 29.9787 99.4824 30.5419C99.9314 31.1051 100.622 31.3867 101.555 31.3867C102.159 31.3867 102.686 31.2502 103.135 30.9771C103.602 30.687 103.964 30.2774 104.223 29.7483C104.482 29.2192 104.612 28.5877 104.612 27.8538V21.2999H108.109V33.9981H105.13L104.819 31.9756H104.716C104.318 32.6924 103.757 33.2642 103.032 33.6909C102.323 34.1005 101.434 34.3053 100.363 34.3053Z" fill="#14141A"/>
<path d="M87.6379 34.1067C86.3253 34.1067 85.1595 33.8336 84.1406 33.2874C83.1389 32.7413 82.3531 31.9732 81.7832 30.9833C81.2132 29.9934 80.9282 28.8584 80.9282 27.5784C80.9282 26.2471 81.2046 25.078 81.7572 24.071C82.3272 23.047 83.113 22.2448 84.1146 21.6645C85.1338 21.0842 86.3081 20.7941 87.6379 20.7941C88.9334 20.7941 90.0644 21.0671 91.0317 21.6133C91.9988 22.1595 92.7589 22.9104 93.3115 23.8662C93.8642 24.8049 94.1406 25.8716 94.1406 27.0664C94.1406 27.237 94.1319 27.4333 94.1146 27.6552C94.1146 27.86 94.106 28.0733 94.0887 28.2952H83.4153V26.1703H90.5914C90.5395 25.3681 90.2373 24.7281 89.6846 24.2502C89.1492 23.7723 88.4755 23.5334 87.6638 23.5334C87.0593 23.5334 86.5066 23.6699 86.0058 23.943C85.505 24.199 85.1078 24.6001 84.8142 25.1463C84.5206 25.6754 84.3737 26.3495 84.3737 27.1688V27.9112C84.3737 28.611 84.512 29.2169 84.7883 29.7289C85.0646 30.2238 85.4445 30.6079 85.9282 30.8809C86.429 31.154 86.9904 31.2906 87.612 31.2906C88.2511 31.2906 88.7864 31.154 89.2183 30.8809C89.65 30.5908 89.9782 30.2238 90.2027 29.7801H93.7519C93.5101 30.5823 93.1041 31.3162 92.5342 31.9818C91.9644 32.6304 91.2648 33.1509 90.4358 33.5435C89.6068 33.919 88.6743 34.1067 87.6379 34.1067Z" fill="#14141A"/>
<path d="M77.9465 33.9208L72.3249 26.9317L77.2731 21.2226H81.4181L75.0192 28.3654L74.9932 25.6261L82.2729 33.9208H77.9465ZM69.3457 33.9208V16H72.843V33.9208H69.3457Z" fill="#14141A"/>
<path d="M59.7079 34.2281C58.6888 34.2281 57.8425 34.0574 57.169 33.7161C56.5127 33.3747 56.0291 32.9139 55.7182 32.3336C55.4073 31.7533 55.252 31.1133 55.252 30.4135C55.252 29.6284 55.4505 28.9372 55.8478 28.3398C56.2622 27.7424 56.8841 27.2816 57.7131 26.9573C58.5421 26.616 59.5869 26.4453 60.8476 26.4453H64.0859C64.0859 25.8138 63.991 25.2933 63.8011 24.8836C63.6283 24.474 63.3519 24.1668 62.9721 23.962C62.6094 23.7572 62.1431 23.6548 61.5731 23.6548C60.8995 23.6548 60.3209 23.8084 59.8373 24.1156C59.3711 24.4058 59.0775 24.8666 58.9565 25.4981H55.5629C55.6664 24.5594 55.9773 23.7487 56.4954 23.066C57.0308 22.3833 57.7303 21.8542 58.5939 21.4787C59.4746 21.1032 60.4678 20.9155 61.5731 20.9155C62.8166 20.9155 63.8873 21.1203 64.7855 21.5299C65.6836 21.9224 66.3744 22.5113 66.8579 23.2964C67.3417 24.0644 67.5834 25.0031 67.5834 26.1125V33.9209H64.6818L64.3192 31.9496H64.2155C63.9392 32.3251 63.6369 32.6579 63.3087 32.948C62.9978 33.2382 62.6526 33.4771 62.2725 33.6649C61.8927 33.8526 61.4867 33.9891 61.055 34.0745C60.6231 34.1769 60.1742 34.2281 59.7079 34.2281ZM60.8476 31.5656C61.3314 31.5656 61.7458 31.4888 62.0912 31.3351C62.4538 31.1645 62.7647 30.9426 63.0238 30.6695C63.2828 30.3964 63.4816 30.0807 63.6196 29.7223C63.7752 29.3468 63.8787 28.9628 63.9305 28.5702H61.2363C60.7009 28.5702 60.2606 28.6385 59.9151 28.775C59.5869 28.8945 59.3452 29.0737 59.1896 29.3127C59.0343 29.5345 58.9565 29.7991 58.9565 30.1063C58.9565 30.4135 59.0343 30.6781 59.1896 30.8999C59.3452 31.1218 59.5696 31.2925 59.8633 31.412C60.1569 31.5144 60.4851 31.5656 60.8476 31.5656Z" fill="#14141A"/>
<path d="M38.3112 33.9209L34.9692 21.2227H38.4147L40.5649 31.4888H40.6686L43.0519 21.2227H47.0417L49.4509 31.4632H49.5546L51.6789 21.2227H55.1503L51.7565 33.9209H47.5857L45.0986 23.7572H44.995L42.4052 33.9209H38.3112Z" fill="#14141A"/>
<path d="M106.637 44.8346C106.317 44.8346 106.035 44.7817 105.789 44.6762C105.55 44.5706 105.355 44.4202 105.206 44.2252C105.062 44.0245 104.974 43.7872 104.942 43.5127H105.518C105.55 43.6658 105.611 43.8057 105.702 43.9322C105.798 44.0589 105.925 44.1618 106.085 44.2409C106.245 44.3147 106.434 44.3517 106.653 44.3517C106.855 44.3517 107.02 44.3227 107.148 44.2647C107.281 44.2013 107.38 44.1195 107.444 44.0194C107.513 43.9137 107.548 43.7977 107.548 43.671C107.548 43.497 107.505 43.3623 107.42 43.2674C107.34 43.1673 107.223 43.0934 107.068 43.0459C106.914 42.9984 106.727 42.9535 106.509 42.9112C106.328 42.8796 106.154 42.8373 105.989 42.7847C105.824 42.7319 105.675 42.6633 105.542 42.5789C105.414 42.4945 105.313 42.3888 105.238 42.2623C105.163 42.1304 105.126 41.9775 105.126 41.8033C105.126 41.5764 105.182 41.3786 105.294 41.2098C105.411 41.0356 105.576 40.9011 105.789 40.8059C106.003 40.7058 106.253 40.6556 106.541 40.6556C106.951 40.6556 107.287 40.7585 107.548 40.9643C107.809 41.1649 107.961 41.4602 108.003 41.8507H107.444C107.422 41.6344 107.332 41.463 107.172 41.3363C107.012 41.2098 106.796 41.1464 106.525 41.1464C106.258 41.1464 106.053 41.2018 105.909 41.3126C105.771 41.4181 105.702 41.5631 105.702 41.7478C105.702 41.8638 105.739 41.9642 105.813 42.0486C105.888 42.133 105.997 42.2069 106.141 42.2702C106.29 42.3282 106.471 42.3783 106.685 42.4206C106.94 42.4681 107.175 42.5314 107.388 42.6105C107.606 42.6844 107.782 42.8004 107.915 42.9587C108.054 43.1118 108.123 43.3307 108.123 43.6156C108.128 43.8531 108.07 44.0641 107.947 44.2488C107.825 44.4335 107.651 44.5785 107.428 44.6842C107.204 44.7843 106.94 44.8346 106.637 44.8346Z" fill="#14141A"/>
<path d="M102.656 44.8345C102.421 44.8345 102.205 44.8002 102.008 44.7316C101.816 44.6577 101.648 44.56 101.505 44.4387C101.361 44.3121 101.246 44.1697 101.161 44.0114L101.113 44.7396H100.602V39.0411H101.161V41.4707C101.294 41.2439 101.486 41.0514 101.736 40.8931C101.987 40.7348 102.293 40.6555 102.656 40.6555C103.05 40.6555 103.393 40.7479 103.686 40.9326C103.979 41.112 104.203 41.3601 104.358 41.6765C104.518 41.988 104.597 42.3441 104.597 42.7451C104.597 43.146 104.518 43.5049 104.358 43.8213C104.198 44.1379 103.971 44.386 103.678 44.5654C103.391 44.7447 103.05 44.8345 102.656 44.8345ZM102.616 44.3517C102.898 44.3517 103.143 44.2857 103.351 44.1538C103.558 44.0219 103.724 43.8346 103.846 43.5919C103.969 43.3492 104.03 43.0669 104.03 42.7451C104.03 42.418 103.969 42.1355 103.846 41.8982C103.724 41.6554 103.556 41.4681 103.343 41.3362C103.135 41.2044 102.892 41.1384 102.616 41.1384C102.338 41.1384 102.091 41.2044 101.872 41.3362C101.659 41.4681 101.491 41.6554 101.369 41.8982C101.252 42.1409 101.193 42.4232 101.193 42.7451C101.193 43.0721 101.252 43.3571 101.369 43.5998C101.491 43.8372 101.659 44.0219 101.872 44.1538C102.091 44.2857 102.338 44.3517 102.616 44.3517Z" fill="#14141A"/>
<path d="M98.0428 44.8346C97.7176 44.8346 97.4459 44.7764 97.2276 44.6604C97.0144 44.5444 96.8546 44.394 96.7481 44.2093C96.6468 44.0245 96.5962 43.8213 96.5962 43.5999C96.5962 43.3254 96.6655 43.0934 96.804 42.9033C96.9479 42.7134 97.1477 42.571 97.4033 42.476C97.6591 42.3811 97.9574 42.3336 98.2984 42.3336H99.3853C99.3853 42.075 99.3453 41.8561 99.2655 41.6765C99.1855 41.4972 99.0684 41.3627 98.9138 41.2729C98.7593 41.178 98.5649 41.1305 98.3304 41.1305C98.0587 41.1305 97.8243 41.199 97.6272 41.3363C97.43 41.4735 97.3074 41.674 97.2596 41.9377H96.6762C96.7081 41.6581 96.804 41.4233 96.9638 41.2334C97.129 41.0435 97.3315 40.9011 97.5711 40.8059C97.8109 40.7058 98.0641 40.6556 98.3304 40.6556C98.7034 40.6556 99.0071 40.7269 99.2414 40.8693C99.4759 41.0066 99.6518 41.1964 99.7689 41.4392C99.8861 41.6819 99.9448 41.9616 99.9448 42.2782V44.7394H99.4333L99.4014 44.0114C99.3533 44.1223 99.2868 44.2277 99.2014 44.3281C99.1216 44.4282 99.0257 44.5154 98.9138 44.5891C98.8073 44.6629 98.6821 44.7209 98.5382 44.7632C98.3943 44.8107 98.2291 44.8346 98.0428 44.8346ZM98.1067 44.3517C98.3039 44.3517 98.4795 44.3122 98.634 44.2329C98.7938 44.1485 98.9297 44.0404 99.0416 43.9085C99.1536 43.7767 99.2388 43.6289 99.2975 43.4652C99.3559 43.2964 99.3853 43.1224 99.3853 42.943V42.8004H98.3384C98.0561 42.8004 97.8296 42.8348 97.6591 42.9033C97.4887 42.972 97.3661 43.0644 97.2916 43.1804C97.217 43.2964 97.1796 43.431 97.1796 43.584C97.1796 43.7369 97.2142 43.8716 97.2835 43.9876C97.3528 44.0984 97.4566 44.1882 97.5952 44.2567C97.7391 44.3201 97.9095 44.3517 98.1067 44.3517Z" fill="#14141A"/>
<path d="M95.4619 44.7396V39.0411H96.0214V44.7396H95.4619Z" fill="#14141A"/>
</g>
<path d="M0.924 12V3.6H3.624C4.296 3.6 4.848 3.712 5.28 3.936C5.712 4.16 6.032 4.464 6.24 4.848C6.448 5.224 6.552 5.652 6.552 6.132C6.552 6.604 6.448 7.032 6.24 7.416C6.032 7.8 5.712 8.104 5.28 8.328C4.856 8.552 4.304 8.664 3.624 8.664H1.932V12H0.924ZM1.932 7.812H3.612C4.316 7.812 4.808 7.66 5.088 7.356C5.376 7.044 5.52 6.636 5.52 6.132C5.52 5.604 5.376 5.192 5.088 4.896C4.808 4.592 4.316 4.44 3.612 4.44H1.932V7.812ZM10.2203 12.144C9.63625 12.144 9.12025 12.008 8.67225 11.736C8.22425 11.464 7.87625 11.08 7.62825 10.584C7.38025 10.088 7.25625 9.508 7.25625 8.844C7.25625 8.172 7.38025 7.592 7.62825 7.104C7.88425 6.608 8.23625 6.224 8.68425 5.952C9.14025 5.68 9.66025 5.544 10.2443 5.544C10.8363 5.544 11.3523 5.68 11.7923 5.952C12.2403 6.224 12.5883 6.608 12.8363 7.104C13.0843 7.592 13.2083 8.172 13.2083 8.844C13.2083 9.508 13.0803 10.088 12.8242 10.584C12.5763 11.08 12.2283 11.464 11.7803 11.736C11.3323 12.008 10.8123 12.144 10.2203 12.144ZM10.2203 11.28C10.5883 11.28 10.9203 11.192 11.2163 11.016C11.5123 10.832 11.7443 10.56 11.9123 10.2C12.0883 9.832 12.1763 9.38 12.1763 8.844C12.1763 8.3 12.0923 7.848 11.9243 7.488C11.7563 7.128 11.5243 6.86 11.2283 6.684C10.9403 6.5 10.6123 6.408 10.2443 6.408C9.88425 6.408 9.55625 6.5 9.26025 6.684C8.96425 6.86 8.72825 7.128 8.55225 7.488C8.37625 7.848 8.28825 8.3 8.28825 8.844C8.28825 9.38 8.37225 9.832 8.54025 10.2C8.71625 10.56 8.94825 10.832 9.23625 11.016C9.53225 11.192 9.86025 11.28 10.2203 11.28ZM15.7538 12L13.8938 5.688H14.9018L16.2818 10.716L17.7458 5.688H18.8858L20.3618 10.704L21.7298 5.688H22.7498L20.8898 12H19.8578L18.3218 6.744L16.7858 12H15.7538ZM26.2961 12.144C25.7361 12.144 25.2401 12.008 24.8081 11.736C24.3761 11.464 24.0361 11.08 23.7881 10.584C23.5481 10.088 23.4281 9.508 23.4281 8.844C23.4281 8.18 23.5481 7.6 23.7881 7.104C24.0361 6.608 24.3761 6.224 24.8081 5.952C25.2481 5.68 25.7521 5.544 26.3201 5.544C26.9281 5.544 27.4361 5.68 27.8441 5.952C28.2521 6.224 28.5601 6.588 28.7681 7.044C28.9761 7.5 29.0801 8 29.0801 8.544C29.0801 8.624 29.0801 8.704 29.0801 8.784C29.0801 8.864 29.0761 8.96 29.0681 9.072H24.1841V8.292H28.0961C28.0801 7.676 27.9001 7.208 27.5561 6.888C27.2201 6.56 26.8001 6.396 26.2961 6.396C25.9601 6.396 25.6481 6.48 25.3601 6.648C25.0801 6.808 24.8521 7.048 24.6761 7.368C24.5001 7.688 24.4121 8.088 24.4121 8.568V8.904C24.4121 9.432 24.5001 9.876 24.6761 10.236C24.8521 10.588 25.0801 10.852 25.3601 11.028C25.6481 11.204 25.9601 11.292 26.2961 11.292C26.7441 11.292 27.0961 11.208 27.3521 11.04C27.6081 10.864 27.7961 10.616 27.9161 10.296H28.9121C28.8161 10.648 28.6481 10.964 28.4081 11.244C28.1761 11.524 27.8801 11.744 27.5201 11.904C27.1681 12.064 26.7601 12.144 26.2961 12.144ZM30.477 12V5.688H31.389L31.461 6.84C31.605 6.552 31.793 6.312 32.025 6.12C32.257 5.928 32.537 5.784 32.865 5.688C33.201 5.592 33.577 5.544 33.993 5.544V6.6H33.369C33.129 6.6 32.897 6.632 32.673 6.696C32.449 6.76 32.245 6.864 32.061 7.008C31.885 7.152 31.745 7.348 31.641 7.596C31.537 7.844 31.485 8.156 31.485 8.532V12H30.477ZM37.5461 12.144C36.9861 12.144 36.4901 12.008 36.0581 11.736C35.6261 11.464 35.2861 11.08 35.0381 10.584C34.7981 10.088 34.6781 9.508 34.6781 8.844C34.6781 8.18 34.7981 7.6 35.0381 7.104C35.2861 6.608 35.6261 6.224 36.0581 5.952C36.4981 5.68 37.0021 5.544 37.5701 5.544C38.1781 5.544 38.6861 5.68 39.0941 5.952C39.5021 6.224 39.8101 6.588 40.0181 7.044C40.2261 7.5 40.3301 8 40.3301 8.544C40.3301 8.624 40.3301 8.704 40.3301 8.784C40.3301 8.864 40.3261 8.96 40.3181 9.072H35.4341V8.292H39.3461C39.3301 7.676 39.1501 7.208 38.8061 6.888C38.4701 6.56 38.0501 6.396 37.5461 6.396C37.2101 6.396 36.8981 6.48 36.6101 6.648C36.3301 6.808 36.1021 7.048 35.9261 7.368C35.7501 7.688 35.6621 8.088 35.6621 8.568V8.904C35.6621 9.432 35.7501 9.876 35.9261 10.236C36.1021 10.588 36.3301 10.852 36.6101 11.028C36.8981 11.204 37.2101 11.292 37.5461 11.292C37.9941 11.292 38.3461 11.208 38.6021 11.04C38.8581 10.864 39.0461 10.616 39.1661 10.296H40.1621C40.0661 10.648 39.8981 10.964 39.6581 11.244C39.4261 11.524 39.1301 11.744 38.7701 11.904C38.4181 12.064 38.0101 12.144 37.5461 12.144ZM44.331 12.144C43.771 12.144 43.275 12 42.843 11.712C42.411 11.424 42.075 11.032 41.835 10.536C41.595 10.032 41.475 9.464 41.475 8.832C41.475 8.192 41.595 7.628 41.835 7.14C42.075 6.644 42.411 6.256 42.843 5.976C43.275 5.688 43.775 5.544 44.343 5.544C44.839 5.544 45.263 5.644 45.615 5.844C45.975 6.044 46.259 6.324 46.467 6.684V3.36H47.475V12H46.563L46.479 10.992C46.359 11.192 46.199 11.38 45.999 11.556C45.807 11.732 45.571 11.876 45.291 11.988C45.019 12.092 44.699 12.144 44.331 12.144ZM44.463 11.268C44.863 11.268 45.211 11.172 45.507 10.98C45.803 10.78 46.031 10.5 46.191 10.14C46.351 9.772 46.431 9.34 46.431 8.844C46.431 8.348 46.351 7.92 46.191 7.56C46.031 7.192 45.803 6.912 45.507 6.72C45.211 6.52 44.863 6.42 44.463 6.42C44.087 6.42 43.751 6.52 43.455 6.72C43.159 6.912 42.927 7.192 42.759 7.56C42.591 7.92 42.507 8.348 42.507 8.844C42.507 9.34 42.591 9.772 42.759 10.14C42.927 10.5 43.159 10.78 43.455 10.98C43.751 11.172 44.087 11.268 44.463 11.268ZM55.5468 12.144C55.1628 12.144 54.8308 12.088 54.5508 11.976C54.2788 11.856 54.0468 11.708 53.8548 11.532C53.6708 11.356 53.5188 11.184 53.3988 11.016L53.3148 12H52.4028V3.36H53.4108V6.684C53.6028 6.308 53.8868 6.024 54.2628 5.832C54.6388 5.64 55.0588 5.544 55.5228 5.544C56.0988 5.544 56.6028 5.684 57.0348 5.964C57.4668 6.244 57.8028 6.632 58.0428 7.128C58.2828 7.616 58.4028 8.18 58.4028 8.82C58.4028 9.452 58.2828 10.02 58.0428 10.524C57.8028 11.028 57.4668 11.424 57.0348 11.712C56.6108 12 56.1148 12.144 55.5468 12.144ZM55.4148 11.268C55.7908 11.268 56.1228 11.172 56.4108 10.98C56.7068 10.78 56.9388 10.5 57.1068 10.14C57.2828 9.772 57.3708 9.34 57.3708 8.844C57.3708 8.348 57.2828 7.92 57.1068 7.56C56.9388 7.192 56.7068 6.912 56.4108 6.72C56.1228 6.52 55.7908 6.42 55.4148 6.42C55.0148 6.42 54.6668 6.52 54.3708 6.72C54.0748 6.912 53.8468 7.192 53.6868 7.56C53.5268 7.92 53.4468 8.348 53.4468 8.844C53.4468 9.34 53.5268 9.772 53.6868 10.14C53.8468 10.5 54.0748 10.78 54.3708 10.98C54.6668 11.172 55.0148 11.268 55.4148 11.268ZM60.0952 14.64L61.5232 11.328H61.1752L58.8112 5.688H59.9032L61.8592 10.548L63.8992 5.688H64.9432L61.1392 14.64H60.0952Z" fill="#767676"/>
<defs>
<clipPath id="clip0_8_249">
<rect width="124" height="29" fill="white" transform="translate(0 16)"/>
</clipPath>
</defs>
</svg>
